<svg width="20" height="14" viewBox="0 0 20 14" fill="none" xmlns="http://www.w3.org/2000/svg">
<path d="M0 2C0 1.66848 0.131696 1.35054 0.366117 1.11612C0.600537 0.881696 0.918479 0.75 1.25 0.75H18.75C19.0815 0.75 19.3995 0.881696 19.6339 1.11612C19.8683 1.35054 20 1.66848 20 2V12C20 12.3315 19.8683 12.6495 19.6339 12.8839C19.3995 13.1183 19.0815 13.25 18.75 13.25H1.25C0.918479 13.25 0.600537 13.1183 0.366117 12.8839C0.131696 12.6495 0 12.3315 0 12V2ZM3.75 2C3.75 2.66304 3.48661 3.29893 3.01777 3.76777C2.54893 4.23661 1.91304 4.5 1.25 4.5V9.5C1.91304 9.5 2.54893 9.76339 3.01777 10.2322C3.48661 10.7011 3.75 11.337 3.75 12H16.25C16.25 11.337 16.5134 10.7011 16.9822 10.2322C17.4511 9.76339 18.087 9.5 18.75 9.5V4.5C18.087 4.5 17.4511 4.23661 16.9822 3.76777C16.5134 3.29893 16.25 2.66304 16.25 2H3.75Z" fill="black"/>
</svg>
