<svg width="20" height="16" viewBox="0 0 20 16" fill="none" xmlns="http://www.w3.org/2000/svg">
<path d="M4.14531 6.63477L1.13156 4.30539C1.04645 4.5271 1.00188 4.7623 1 4.99977C0.999077 5.36579 1.09887 5.72501 1.28844 6.0381C1.47802 6.3512 1.75008 6.60611 2.07484 6.77493C2.39961 6.94375 2.76455 7.01997 3.12974 6.99525C3.49492 6.97053 3.84626 6.84582 4.14531 6.63477ZM5.40906 8.58102C5.03492 8.20826 4.52814 7.99921 4 7.99977H2C1.46972 8.00027 0.9613 8.21114 0.586335 8.5861C0.21137 8.96107 0.00049644 9.46949 0 9.99977V10.9998C0 11.265 0.105357 11.5193 0.292893 11.7069C0.48043 11.8944 0.734784 11.9998 1 11.9998H3.05969C3.15479 11.2853 3.4171 10.6033 3.82533 10.0093C4.23355 9.41526 4.77616 8.92591 5.40906 8.58102ZM17 6.99977C17.3956 6.99977 17.7822 6.88247 18.1111 6.66271C18.44 6.44295 18.6964 6.13059 18.8478 5.76514C18.9991 5.39968 19.0387 4.99755 18.9616 4.60959C18.8844 4.22163 18.6939 3.86526 18.4142 3.58556C18.1345 3.30585 17.7781 3.11537 17.3902 3.0382C17.0022 2.96103 16.6001 3.00064 16.2346 3.15201C15.8692 3.30339 15.5568 3.55973 15.3371 3.88863C15.1173 4.21753 15 4.60421 15 4.99977C15.0005 5.53005 15.2114 6.03847 15.5863 6.41343C15.9613 6.7884 16.4697 6.99927 17 6.99977ZM15.6425 11.097C15.4019 10.5677 15.0356 10.1052 14.5756 9.74965C14.1156 9.39413 13.5757 9.15634 13.0028 9.05696L11.2812 7.72571C12.5769 7.21633 13.5 5.97821 13.5 4.49977C13.5003 4.04006 13.41 3.58481 13.2342 3.16004C13.0584 2.73527 12.8006 2.34932 12.4755 2.02425C12.1505 1.69919 11.7645 1.4414 11.3397 1.26561C10.915 1.08982 10.4597 0.999482 10 0.99977C8.21437 0.99977 6.75969 2.33821 6.54375 4.06477L1.42062 0.105395C1.36878 0.0650531 1.3095 0.0353228 1.24616 0.0179024C1.18282 0.000481963 1.11667 -0.00428704 1.05149 0.00386788C0.986311 0.0120228 0.923375 0.0329418 0.866282 0.0654295C0.809188 0.0979172 0.759056 0.141337 0.71875 0.193207L0.105312 0.982894C0.023937 1.08758 -0.0125268 1.2203 0.00394075 1.35186C0.0204083 1.48342 0.0884586 1.60306 0.193125 1.68446L18.5791 15.8945C18.6309 15.9348 18.6902 15.9646 18.7536 15.9821C18.817 15.9995 18.8831 16.0043 18.9484 15.9961C19.0136 15.988 19.0766 15.967 19.1337 15.9345C19.1908 15.902 19.2409 15.8586 19.2812 15.8066L19.895 15.017C19.9764 14.9123 20.0128 14.7796 19.9964 14.648C19.9799 14.5164 19.9119 14.3968 19.8072 14.3154L15.6425 11.097ZM4 12.6001V13.4998C4 13.8976 4.15804 14.2791 4.43934 14.5604C4.72064 14.8417 5.10218 14.9998 5.5 14.9998H14.5C14.633 14.998 14.7651 14.9783 14.8928 14.9413L7.25 9.03508C5.42938 9.21321 4 10.7316 4 12.6001ZM18 7.99977H16C15.4719 7.99921 14.9651 8.20826 14.5909 8.58102C15.2238 8.92559 15.7663 9.41491 16.1741 10.009C16.5819 10.6032 16.8435 11.2853 16.9375 11.9998H19C19.2652 11.9998 19.5196 11.8944 19.7071 11.7069C19.8946 11.5193 20 11.265 20 10.9998V9.99977C19.9995 9.46949 19.7886 8.96107 19.4137 8.5861C19.0387 8.21114 18.5303 8.00027 18 7.99977Z" fill="black"/>
</svg>
