<svg width="19" height="20" viewBox="0 0 19 20" fill="none" xmlns="http://www.w3.org/2000/svg">
<path d="M9.62496 2.1875V5.5825L9.68371 5.58C10.0737 5.565 10.6112 5.56 10.9975 5.6375C11.3475 5.7075 11.6762 5.8625 11.92 5.9975C12.2612 6.1875 12.49 6.47875 12.62 6.8L12.785 6.785C13.175 6.755 13.7775 6.7375 14.2325 6.92C14.695 7.105 15.0937 7.52875 15.3325 7.815C15.4262 7.9275 15.5087 8.03375 15.5762 8.125H16.3037C16.653 8.12501 16.9984 8.19821 17.3176 8.33988C17.6369 8.48155 17.9229 8.68854 18.1573 8.94752C18.3916 9.20649 18.5691 9.5117 18.6783 9.84347C18.7875 10.1752 18.826 10.5262 18.7912 10.8738L18.4512 14.2675C18.3902 14.8788 18.2011 15.4704 17.8962 16.0038L16.1525 19.055C15.9885 19.342 15.7517 19.5805 15.4659 19.7465C15.18 19.9124 14.8555 19.9999 14.525 20H6.64746C6.29907 20 5.95757 19.9029 5.66126 19.7197C5.36496 19.5364 5.12558 19.2742 4.96996 18.9625L3.45121 15.925L0.33746 10.7362C0.101111 10.3395 0.0176791 9.87011 0.102822 9.4162C0.187964 8.9623 0.435828 8.55506 0.799898 8.27093C1.16397 7.98679 1.61922 7.84528 2.08021 7.87296C2.5412 7.90063 2.97625 8.09559 3.30371 8.42125L5.24996 10.3663V2.1875C5.24996 1.60734 5.48043 1.05094 5.89066 0.640704C6.3009 0.230468 6.8573 0 7.43746 0C8.01762 0 8.57402 0.230468 8.98426 0.640704C9.39449 1.05094 9.62496 1.60734 9.62496 2.1875V2.1875Z" fill="black"/>
</svg>
