<svg width="20" height="18" viewBox="0 0 20 18" fill="none" xmlns="http://www.w3.org/2000/svg">
<path d="M16.629 3.6196C14.9041 1.90495 12.5803 0.927777 10.1483 0.894437C7.71634 0.861096 5.36662 1.7742 3.5953 3.44092C1.82399 5.10764 0.769743 7.39752 0.655189 9.827C0.540635 12.2565 1.37474 14.6354 2.98137 16.4614L2.9884 16.4692C3.00129 16.4829 3.0134 16.4969 3.02746 16.5102C3.05637 16.543 3.08918 16.5801 3.12785 16.6188C3.27951 16.78 3.46281 16.9082 3.66629 16.9953C3.86976 17.0824 4.08901 17.1265 4.31034 17.125C4.53166 17.1235 4.75028 17.0762 4.95252 16.9863C5.15476 16.8964 5.33626 16.7657 5.48566 16.6024C6.06053 15.9776 6.75876 15.4789 7.53622 15.1378C8.31368 14.7966 9.15345 14.6205 10.0025 14.6205C10.8515 14.6205 11.6912 14.7966 12.4687 15.1378C13.2462 15.4789 13.9444 15.9776 14.5193 16.6024C14.6698 16.7666 14.8527 16.8977 15.0565 16.9874C15.2604 17.0772 15.4806 17.1237 15.7033 17.1239C15.926 17.1241 16.1464 17.0781 16.3504 16.9887C16.5543 16.8994 16.7376 16.7686 16.8884 16.6048L17.0138 16.468L17.0208 16.4602C18.6038 14.6727 19.4449 12.3483 19.3723 9.96167C19.2997 7.57502 18.3189 5.30608 16.6302 3.61804L16.629 3.6196ZM9.37512 4.00046C9.37512 3.8347 9.44097 3.67573 9.55818 3.55852C9.67539 3.44131 9.83436 3.37546 10.0001 3.37546C10.1659 3.37546 10.3248 3.44131 10.4421 3.55852C10.5593 3.67573 10.6251 3.8347 10.6251 4.00046V5.25046C10.6251 5.41622 10.5593 5.57519 10.4421 5.6924C10.3248 5.80961 10.1659 5.87546 10.0001 5.87546C9.83436 5.87546 9.67539 5.80961 9.55818 5.6924C9.44097 5.57519 9.37512 5.41622 9.37512 5.25046V4.00046ZM5.00012 10.8755H3.75012C3.58436 10.8755 3.42539 10.8096 3.30818 10.6924C3.19097 10.5752 3.12512 10.4162 3.12512 10.2505C3.12512 10.0847 3.19097 9.92573 3.30818 9.80852C3.42539 9.69131 3.58436 9.62546 3.75012 9.62546H5.00012C5.16588 9.62546 5.32485 9.69131 5.44206 9.80852C5.55927 9.92573 5.62512 10.0847 5.62512 10.2505C5.62512 10.4162 5.55927 10.5752 5.44206 10.6924C5.32485 10.8096 5.16588 10.8755 5.00012 10.8755ZM6.90637 7.15671C6.78917 7.27383 6.63026 7.33962 6.46457 7.33962C6.29888 7.33962 6.13997 7.27383 6.02277 7.15671L5.13879 6.27312C5.02157 6.15589 4.95571 5.9969 4.95571 5.83113C4.95571 5.66535 5.02157 5.50636 5.13879 5.38913C5.25601 5.27191 5.415 5.20605 5.58078 5.20605C5.74656 5.20605 5.90555 5.27191 6.02277 5.38913L6.90637 6.27312C7.02349 6.39032 7.08928 6.54923 7.08928 6.71491C7.08928 6.8806 7.02349 7.03951 6.90637 7.15671ZM12.7384 8.05905L10.8829 11.0083C10.807 11.1135 10.7147 11.2058 10.6095 11.2817C10.3555 11.4589 10.0419 11.5288 9.73673 11.4762C9.43156 11.4235 9.15945 11.2527 8.97945 11.0007C8.79946 10.7487 8.7261 10.4359 8.77532 10.1302C8.82453 9.82443 8.99233 9.55043 9.2423 9.36765L12.1915 7.51218C12.2586 7.46545 12.3383 7.44039 12.42 7.44039C12.5018 7.44039 12.5815 7.46545 12.6486 7.51218C12.7327 7.57297 12.7895 7.66461 12.8063 7.76708C12.8231 7.86955 12.7987 7.97452 12.7384 8.05905ZM13.9775 7.15671C13.8593 7.26897 13.702 7.33064 13.539 7.32855C13.376 7.32646 13.2203 7.26079 13.105 7.14554C12.9898 7.03029 12.9241 6.87458 12.922 6.7116C12.9199 6.54862 12.9816 6.39128 13.0939 6.27312L13.9775 5.38913C14.0947 5.27191 14.2537 5.20605 14.4195 5.20605C14.5852 5.20605 14.7442 5.27191 14.8614 5.38913C14.9787 5.50636 15.0445 5.66535 15.0445 5.83113C15.0445 5.9969 14.9787 6.15589 14.8614 6.27312L13.9775 7.15671ZM16.2501 10.8755H15.0001C14.8344 10.8755 14.6754 10.8096 14.5582 10.6924C14.441 10.5752 14.3751 10.4162 14.3751 10.2505C14.3751 10.0847 14.441 9.92573 14.5582 9.80852C14.6754 9.69131 14.8344 9.62546 15.0001 9.62546H16.2501C16.4159 9.62546 16.5749 9.69131 16.6921 9.80852C16.8093 9.92573 16.8751 10.0847 16.8751 10.2505C16.8751 10.4162 16.8093 10.5752 16.6921 10.6924C16.5749 10.8096 16.4159 10.8755 16.2501 10.8755Z" fill="black"/>
</svg>
