<svg width="20" height="20" viewBox="0 0 20 20" fill="none" xmlns="http://www.w3.org/2000/svg">
<path d="M13.7501 3.12539C13.75 2.39218 14.0077 1.68229 14.4782 1.11991C14.9486 0.557526 15.6018 0.178472 16.3235 0.0490639C17.0452 -0.0803441 17.7895 0.0481343 18.426 0.412021C19.0625 0.775907 19.5509 1.35203 19.8055 2.03959C20.0602 2.72715 20.065 3.48237 19.8191 4.17311C19.5732 4.86385 19.0922 5.44613 18.4603 5.81807C17.8285 6.19001 17.0859 6.32794 16.3627 6.20771C15.6394 6.08748 14.9814 5.71675 14.5038 5.16039L6.10634 9.06039C6.29939 9.67219 6.29939 10.3286 6.10634 10.9404L14.5038 14.8404C15.0086 14.2533 15.7134 13.8745 16.4816 13.7775C17.2497 13.6804 18.0266 13.8719 18.6616 14.315C19.2965 14.7581 19.7444 15.4211 19.9184 16.1755C20.0924 16.93 19.9801 17.7222 19.6033 18.3986C19.2265 19.075 18.612 19.5874 17.8789 19.8366C17.1458 20.0857 16.3464 20.0539 15.6354 19.7472C14.9245 19.4404 14.3527 18.8807 14.031 18.1765C13.7092 17.4722 13.6603 16.6736 13.8938 15.9354L5.49634 12.0354C5.08063 12.5199 4.52653 12.8654 3.90856 13.0255C3.2906 13.1856 2.63842 13.1526 2.03976 12.931C1.4411 12.7093 0.924682 12.3097 0.559971 11.7858C0.195261 11.2618 -0.000244141 10.6388 -0.000244141 10.0004C-0.000244141 9.36202 0.195261 8.73896 0.559971 8.21503C0.924682 7.6911 1.4411 7.29144 2.03976 7.06979C2.63842 6.84815 3.2906 6.81517 3.90856 6.97529C4.52653 7.1354 5.08063 7.48093 5.49634 7.96539L13.8938 4.06539C13.7982 3.76123 13.7498 3.44422 13.7501 3.12539Z" fill="black"/>
</svg>
