<svg width="20" height="14" viewBox="0 0 20 14" fill="none" xmlns="http://www.w3.org/2000/svg">
<path d="M19.8791 6.49273C17.9962 2.81877 14.2684 0.333008 9.99998 0.333008C5.73158 0.333008 2.00276 2.82051 0.120814 6.49308C0.0413845 6.6502 0 6.82379 0 6.99985C0 7.17591 0.0413845 7.3495 0.120814 7.50662C2.0038 11.1806 5.73158 13.6663 9.99998 13.6663C14.2684 13.6663 17.9972 11.1788 19.8791 7.50627C19.9586 7.34915 20 7.17556 20 6.9995C20 6.82344 19.9586 6.64985 19.8791 6.49273ZM9.99998 11.9997C9.01108 11.9997 8.04438 11.7064 7.22213 11.157C6.39988 10.6076 5.75902 9.82672 5.38058 8.91309C5.00215 7.99946 4.90313 6.99413 5.09606 6.02422C5.28898 5.05432 5.76518 4.1634 6.46445 3.46414C7.16371 2.76488 8.05462 2.28867 9.02453 2.09575C9.99443 1.90282 10.9998 2.00184 11.9134 2.38028C12.827 2.75871 13.6079 3.39958 14.1573 4.22182C14.7067 5.04407 15 6.01077 15 6.99967C15.0003 7.65637 14.8712 8.3067 14.62 8.91347C14.3689 9.52024 14.0006 10.0716 13.5362 10.5359C13.0719 11.0003 12.5205 11.3686 11.9138 11.6197C11.307 11.8709 10.6567 12 9.99998 11.9997ZM9.99998 3.66634C9.70246 3.6705 9.40685 3.71476 9.12116 3.79794C9.35666 4.11796 9.46966 4.51179 9.43969 4.90799C9.40972 5.30419 9.23875 5.67653 8.95779 5.95749C8.67684 6.23844 8.3045 6.40941 7.9083 6.43938C7.51209 6.46935 7.11827 6.35635 6.79824 6.12085C6.61601 6.79224 6.64891 7.50387 6.8923 8.15558C7.1357 8.80729 7.57733 9.36626 8.15505 9.75383C8.73277 10.1414 9.41749 10.338 10.1128 10.3161C10.8081 10.2941 11.4791 10.0546 12.0312 9.63138C12.5833 9.20812 12.9888 8.62239 13.1905 7.95661C13.3923 7.29084 13.3802 6.57856 13.156 5.92001C12.9317 5.26147 12.5066 4.68983 11.9405 4.28555C11.3743 3.88127 10.6957 3.6647 9.99998 3.66634Z" fill="black"/>
</svg>
