<svg width="29" height="23" viewBox="0 0 29 23" fill="none" xmlns="http://www.w3.org/2000/svg">
<path opacity="0.4" fill-rule="evenodd" clip-rule="evenodd" d="M22.3878 3.31333C24.7354 5.12533 26.7341 7.78 28.1695 11.1C28.2768 11.352 28.2768 11.6467 28.1695 11.8867C25.2988 18.5267 20.1878 22.5 14.5 22.5H14.4866C8.81219 22.5 3.70122 18.5267 0.830488 11.8867C0.723171 11.6467 0.723171 11.352 0.830488 11.1C3.70122 4.45867 8.81219 0.5 14.4866 0.5H14.5C17.3439 0.5 20.0402 1.48667 22.3878 3.31333ZM9.13415 11.5C9.13415 14.4333 11.5354 16.82 14.5 16.82C17.4512 16.82 19.8524 14.4333 19.8524 11.5C19.8524 8.55333 17.4512 6.16667 14.5 6.16667C11.5354 6.16667 9.13415 8.55333 9.13415 11.5Z" fill="#554AF0"/>
<path d="M17.8425 11.4959C17.8425 13.3226 16.3401 14.8159 14.5023 14.8159C12.6511 14.8159 11.1486 13.3226 11.1486 11.4959C11.1486 11.2693 11.1754 11.0573 11.2157 10.8439H11.2828C12.7718 10.8439 13.9791 9.6706 14.0328 8.2026C14.1803 8.17726 14.3413 8.1626 14.5023 8.1626C16.3401 8.1626 17.8425 9.65593 17.8425 11.4959Z" fill="#554AF0"/>
</svg>
