<svg width="25" height="29" viewBox="0 0 25 29" fill="none" xmlns="http://www.w3.org/2000/svg">
<path opacity="0.4" d="M18.2626 0.75H6.73875C2.55875 0.75 0.125 3.1975 0.125 7.39125V21.595C0.125 25.8575 2.55875 28.25 6.73875 28.25H18.2626C22.51 28.25 24.875 25.8575 24.875 21.595V7.39125C24.875 3.1975 22.51 0.75 18.2626 0.75Z" fill="#554AF0"/>
<path fill-rule="evenodd" clip-rule="evenodd" d="M7.11001 7.14355V7.1573C6.51738 7.1573 6.03751 7.63855 6.03751 8.2298C6.03751 8.82105 6.51738 9.3023 7.11001 9.3023H11.2199C11.8125 9.3023 12.2938 8.82105 12.2938 8.21468C12.2938 7.6248 11.8125 7.14355 11.2199 7.14355H7.11001ZM17.89 15.5173H7.11001C6.51738 15.5173 6.03751 15.0361 6.03751 14.4448C6.03751 13.8536 6.51738 13.3709 7.11001 13.3709H17.89C18.4813 13.3709 18.9625 13.8536 18.9625 14.4448C18.9625 15.0361 18.4813 15.5173 17.89 15.5173ZM17.89 21.8011H7.11001C6.69751 21.8561 6.29876 21.6498 6.07876 21.3061C5.85876 20.9486 5.85876 20.4948 6.07876 20.1511C6.29876 19.7936 6.69751 19.6011 7.11001 19.6423H17.89C18.4386 19.6973 18.8525 20.1648 18.8525 20.7286C18.8525 21.2772 18.4386 21.7461 17.89 21.8011Z" fill="#554AF0"/>
</svg>
