<svg width="27" height="27" viewBox="0 0 27 27" fill="none" xmlns="http://www.w3.org/2000/svg">
<path d="M10.2323 5.53181C10.2323 3.85011 11.5929 2.48926 13.2743 2.48926C14.9557 2.48926 16.3163 3.85011 16.3163 5.53181C16.3163 7.21351 14.9557 8.57436 13.2743 8.57436C11.5929 8.57436 10.2323 7.21351 10.2323 5.53181ZM14.6571 5.53181C14.6571 4.76841 14.0376 4.14883 13.2743 4.14883C12.511 4.14883 11.8916 4.76841 11.8916 5.53181C11.8916 6.29521 12.511 6.91479 13.2743 6.91479C14.0376 6.91479 14.6571 6.29522 14.6571 5.53181Z" fill="#ABABAB"/>
<path d="M10.2323 21.0211C10.2323 19.3394 11.5929 17.9785 13.2743 17.9785C14.9557 17.9785 16.3163 19.3394 16.3163 21.0211C16.3163 22.7028 14.9557 24.0636 13.2743 24.0636C11.5929 24.0636 10.2323 22.7028 10.2323 21.0211ZM14.6571 21.0211C14.6571 20.2577 14.0376 19.6381 13.2743 19.6381C12.511 19.6381 11.8916 20.2577 11.8916 21.0211C11.8916 21.7845 12.511 22.404 13.2743 22.404C14.0376 22.404 14.6571 21.7845 14.6571 21.0211Z" fill="#ABABAB"/>
<path d="M10.2323 13.2769C10.2323 11.5952 11.5929 10.2344 13.2743 10.2344C14.9557 10.2344 16.3163 11.5952 16.3163 13.2769C16.3163 14.9586 14.9557 16.3195 13.2743 16.3195C11.5929 16.3195 10.2323 14.9586 10.2323 13.2769ZM14.6571 13.2769C14.6571 12.5135 14.0376 11.8939 13.2743 11.8939C12.511 11.8939 11.8916 12.5135 11.8916 13.2769C11.8916 14.0403 12.511 14.6599 13.2743 14.6599C14.0376 14.6599 14.6571 14.0403 14.6571 13.2769Z" fill="#ABABAB"/>
</svg>
