<svg width="36" height="36" viewBox="0 0 36 36" fill="none" xmlns="http://www.w3.org/2000/svg">
<path d="M14.024 22.2866C8.07829 22.2866 3 23.2051 3 26.8761C3 30.5499 8.046 31.5 14.024 31.5C19.9697 31.5 25.048 30.5816 25.048 26.9106C25.048 23.2367 20.002 22.2866 14.024 22.2866Z" fill="#554AF0"/>
<path opacity="0.4" d="M14.024 18.7872C18.0734 18.7872 21.3185 15.6093 21.3185 11.6436C21.3185 7.67798 18.0734 4.5 14.024 4.5C9.97605 4.5 6.72946 7.67798 6.72946 11.6436C6.72946 15.6093 9.97605 18.7872 14.024 18.7872Z" fill="#554AF0"/>
<path opacity="0.4" d="M24.2601 11.7733C24.2601 13.7928 23.6408 15.6772 22.5547 17.2424C22.4416 17.4034 22.5414 17.6205 22.7381 17.655C23.0111 17.6995 23.2914 17.7268 23.5776 17.7326C26.425 17.8059 28.9803 16.0106 29.6863 13.307C30.7328 9.29535 27.6623 5.69336 23.7508 5.69336C23.3267 5.69336 22.9201 5.73648 22.5238 5.81553C22.4695 5.82703 22.4108 5.8529 22.3815 5.8989C22.3433 5.95783 22.3712 6.03401 22.4093 6.08432C23.585 7.69846 24.2601 9.66331 24.2601 11.7733Z" fill="#554AF0"/>
<path d="M32.6687 22.7541C32.1476 21.666 30.8898 20.9201 28.9759 20.5535C28.0733 20.3379 25.628 20.0318 23.3546 20.0749C23.3208 20.0792 23.3017 20.1022 23.2988 20.1166C23.2944 20.1396 23.3047 20.1741 23.3487 20.1985C24.3996 20.7073 28.4607 22.9209 27.95 27.5894C27.928 27.7935 28.0938 27.9659 28.3008 27.9372C29.3003 27.7978 31.8717 27.2559 32.6687 25.5713C33.1105 24.6802 33.1105 23.6453 32.6687 22.7541Z" fill="#554AF0"/>
</svg>
