<svg width="29" height="29" viewBox="0 0 29 29" fill="none" xmlns="http://www.w3.org/2000/svg">
<path d="M27.4627 1.54516C26.7752 0.842536 25.7577 0.582661 24.809 0.857661L2.6852 7.25004C1.6842 7.52779 0.974703 8.32116 0.783578 9.32766C0.588328 10.3534 1.27033 11.6569 2.16133 12.2014L9.07895 16.4254C9.78845 16.8599 10.7042 16.7513 11.2913 16.1628L19.2127 8.24141C19.6115 7.82754 20.2715 7.82754 20.6702 8.24141C21.069 8.63879 21.069 9.28641 20.6702 9.69891L12.7351 17.6203C12.1466 18.2088 12.0366 19.1218 12.4697 19.8327L16.6965 26.7764C17.1915 27.6 18.044 28.0689 18.979 28.0689C19.089 28.0689 19.2127 28.0689 19.3227 28.0538C20.3952 27.9177 21.2477 27.1875 21.564 26.1563L28.1227 4.19891C28.4115 3.26391 28.1502 2.24641 27.4627 1.54516Z" fill="#554AF0"/>
<path opacity="0.4" fill-rule="evenodd" clip-rule="evenodd" d="M2.13947 21.1108C1.87547 21.1108 1.61147 21.0104 1.41072 20.8083C1.00785 20.4054 1.00785 19.7536 1.41072 19.3508L3.2876 17.4725C3.69047 17.071 4.3436 17.071 4.74647 17.4725C5.14797 17.8754 5.14797 18.5285 4.74647 18.9314L2.86822 20.8083C2.66747 21.0104 2.40347 21.1108 2.13947 21.1108ZM7.31112 22.7503C7.04712 22.7503 6.78312 22.6499 6.58237 22.4478C6.1795 22.0449 6.1795 21.3932 6.58237 20.9903L8.45925 19.1121C8.86212 18.7106 9.51525 18.7106 9.91812 19.1121C10.3196 19.5149 10.3196 20.1681 9.91812 20.5709L8.03987 22.4478C7.83912 22.6499 7.57512 22.7503 7.31112 22.7503ZM7.65996 27.6563C7.86071 27.8584 8.12471 27.9588 8.38871 27.9588C8.65271 27.9588 8.91671 27.8584 9.11746 27.6563L10.9957 25.7794C11.3972 25.3766 11.3972 24.7234 10.9957 24.3206C10.5928 23.9191 9.93971 23.9191 9.53684 24.3206L7.65996 26.1988C7.25709 26.6017 7.25709 27.2534 7.65996 27.6563Z" fill="#554AF0"/>
</svg>
