<svg width="28" height="28" viewBox="0 0 28 28" fill="none" xmlns="http://www.w3.org/2000/svg">
<path d="M14 26.5413C13.1833 26.5413 12.355 26.2263 11.7367 25.608L9.74164 23.6363C9.25164 23.1463 8.57501 22.878 7.88668 22.878H7C4.585 22.878 2.625 20.9297 2.625 18.538V5.79801C2.625 3.40634 4.585 1.45801 7 1.45801H21C23.415 1.45801 25.375 3.40634 25.375 5.79801V18.5263C25.375 20.918 23.415 22.8663 21 22.8663H20.1133C19.425 22.8663 18.7484 23.1463 18.2584 23.6247L16.2633 25.5963C15.645 26.2263 14.8167 26.5413 14 26.5413ZM7 3.20801C5.55333 3.20801 4.375 4.37467 4.375 5.79801V18.5263C4.375 19.9613 5.55333 21.1163 7 21.1163H7.88668C9.04168 21.1163 10.1616 21.583 10.9783 22.388L12.9733 24.3597C13.545 24.9197 14.4667 24.9197 15.0384 24.3597L17.0333 22.388C17.85 21.583 18.97 21.1163 20.125 21.1163H21C22.4467 21.1163 23.625 19.9497 23.625 18.5263V5.79801C23.625 4.36301 22.4467 3.20801 21 3.20801H7Z" fill="#554AF0"/>
<path d="M14.0815 11.3166C14.0581 11.3166 14.0231 11.3166 13.9998 11.3166C13.9648 11.3166 13.9182 11.3166 13.8832 11.3166C12.1798 11.2583 10.8498 9.8816 10.8498 8.1666C10.8498 6.42827 12.2615 5.0166 13.9998 5.0166C15.7381 5.0166 17.1498 6.42827 17.1498 8.1666C17.1382 9.8816 15.8082 11.2583 14.1048 11.3166C14.1048 11.3166 14.0931 11.3166 14.0815 11.3166ZM13.9998 6.7666C13.2298 6.7666 12.5998 7.3966 12.5998 8.1666C12.5998 8.92493 13.1948 9.54327 13.9415 9.5666C13.9415 9.55493 14.0115 9.55493 14.0932 9.5666C14.8282 9.51993 15.3998 8.91327 15.3998 8.1666C15.3998 7.3966 14.7698 6.7666 13.9998 6.7666Z" fill="#554AF0"/>
<path d="M14 19.4831C12.67 19.4831 11.34 19.1331 10.3017 18.4448C9.32169 17.7914 8.75 16.8464 8.75 15.8431C8.75 14.8398 9.31002 13.8831 10.3017 13.2298C12.3784 11.8531 15.6216 11.8531 17.6866 13.2298C18.6666 13.8831 19.2383 14.8398 19.2383 15.8314C19.2383 16.8348 18.6783 17.7798 17.6866 18.4448C16.66 19.1448 15.33 19.4831 14 19.4831ZM11.27 14.6881C10.7683 15.0264 10.5 15.4348 10.5 15.8431C10.5 16.2514 10.78 16.6598 11.27 16.9981C12.7516 17.9898 15.2367 17.9898 16.7184 16.9981C17.22 16.6598 17.5 16.2514 17.4883 15.8431C17.4883 15.4348 17.2084 15.0264 16.7184 14.6881C15.2484 13.6964 12.7516 13.6964 11.27 14.6881Z" fill="#554AF0"/>
</svg>
