<svg width="23" height="26" viewBox="0 0 23 26" fill="none" xmlns="http://www.w3.org/2000/svg">
<path d="M22.3685 13.0152C22.3685 13.805 22.1143 14.5978 21.6059 15.2327C21.5106 15.3572 21.0658 15.8706 20.7163 16.2047L20.5256 16.387C17.8567 19.1543 11.216 23.3159 7.84806 24.6495C7.84806 24.6798 5.84634 25.4727 4.89314 25.5H4.76604C3.30447 25.5 1.93822 24.7132 1.23921 23.4374C0.857926 22.7357 0.508419 20.7005 0.476646 20.6731C0.190686 18.8475 4.57764e-05 16.0529 4.57764e-05 12.9848C4.57764e-05 9.76792 0.190686 6.84872 0.540192 5.0565C0.540192 5.02612 0.889699 3.38578 1.11211 2.839C1.46162 2.05225 2.09709 1.38092 2.89142 0.95565C3.52689 0.654921 4.19412 0.5 4.89314 0.5C5.62392 0.533414 6.99018 0.986027 7.53032 1.19866C11.0889 2.53524 17.8884 6.90948 20.4938 9.58262C20.9387 10.0079 21.4153 10.5273 21.5424 10.6458C22.0825 11.3141 22.3685 12.1343 22.3685 13.0152Z" fill="#554AF0"/>
</svg>
