<svg width="30" height="30" viewBox="0 0 46 48" fill="none" xmlns="http://www.w3.org/2000/svg">
<path d="M23.5 5.25V13.398L23.641 13.392C24.577 13.356 25.867 13.344 26.794 13.53C27.634 13.698 28.423 14.07 29.008 14.394C29.827 14.85 30.376 15.549 30.688 16.32L31.084 16.284C32.02 16.212 33.466 16.17 34.558 16.608C35.668 17.052 36.625 18.069 37.198 18.756C37.423 19.026 37.621 19.281 37.783 19.5H39.529C40.3673 19.5 41.1962 19.6757 41.9624 20.0157C42.7286 20.3557 43.4151 20.8525 43.9776 21.474C44.54 22.0956 44.966 22.8281 45.2281 23.6243C45.4901 24.4206 45.5824 25.2629 45.499 26.097L44.683 34.242C44.5365 35.7091 44.0826 37.1289 43.351 38.409L39.166 45.732C38.7726 46.4207 38.2041 46.9933 37.5182 47.3915C36.8322 47.7898 36.0532 47.9997 35.26 48H16.354C15.5179 48 14.6983 47.767 13.9871 47.3272C13.276 46.8873 12.7015 46.2581 12.328 45.51L8.683 38.22L1.21 25.767C0.642764 24.8148 0.442528 23.6883 0.646869 22.5989C0.851211 21.5095 1.44608 20.5322 2.31985 19.8502C3.19362 19.1683 4.28622 18.8287 5.3926 18.8951C6.49899 18.9615 7.5431 19.4294 8.329 20.211L13 24.879V5.25C13 3.85761 13.5531 2.52226 14.5377 1.53769C15.5223 0.553123 16.8576 0 18.25 0C19.6424 0 20.9777 0.553123 21.9623 1.53769C22.9469 2.52226 23.5 3.85761 23.5 5.25Z" fill="black"/>
</svg>
