<?xml version="1.0" encoding="utf-8"?>
<svg viewBox="0 0 91.82 135.08" xmlns="http://www.w3.org/2000/svg" xmlns:xlink="http://www.w3.org/1999/xlink">
  <defs>
    <style>.cls-1{fill:url(#linear-gradient);}.cls-2{fill:url(#linear-gradient-2);}.cls-3{fill:url(#linear-gradient-3);}.cls-4{fill:url(#linear-gradient-4);}.cls-5{fill:url(#linear-gradient-5);}.cls-6{fill:url(#radial-gradient);}.cls-7{fill:url(#radial-gradient-2);}</style>
    <linearGradient id="linear-gradient" x1="34.9" y1="13.65" x2="34.9" y2="302.5" gradientUnits="userSpaceOnUse">
      <stop offset="0" stop-color="#ffd600"/>
      <stop offset="1" stop-color="#ff7c3b"/>
    </linearGradient>
    <linearGradient id="linear-gradient-2" x1="59.93" y1="13.65" x2="59.93" y2="302.5" xlink:href="#linear-gradient"/>
  </defs>
  <title>icon_coiin</title>
  <g id="Layer_2" data-name="Layer 2">
    <g id="_11_LOGO_SET_2_copy" data-name="11 LOGO SET 2 copy">
      <path class="cls-1" fill="url(#linear-gradient)" d="M34.9,18.56a9.19,9.19,0,1,0-9.19-9.19A9.2,9.2,0,0,0,34.9,18.56Z"/>
      <path class="cls-2" fill="url(#linear-gradient-2)" d="M59.94,18.56a9.19,9.19,0,1,0-9.19-9.19A9.2,9.2,0,0,0,59.94,18.56Z"/>
      <path class="cls-3" d="M82,50.4a41.48,41.48,0,0,0-13.81-9.13V29.05a3.19,3.19,0,0,0-3.29-2.93A4.59,4.59,0,0,0,63.81,26H56.14a5.09,5.09,0,0,0-1,.13,3.71,3.71,0,0,0-2.44.93,2.73,2.73,0,0,0-.94,2L51.8,54.3A27,27,0,0,1,70.36,67.55a4.93,4.93,0,0,0,4.77,1.6l1.3-.45a2.13,2.13,0,0,1,.56-.2L91.1,63.58A42,42,0,0,0,82,50.4Z" style="fill: rgb(255, 214, 0);"/>
      <path class="cls-4" d="M42.64,54.18l.07-25.13a2.69,2.69,0,0,0-.94-2,3.69,3.69,0,0,0-2.44-.93L30.63,26a4.74,4.74,0,0,0-1.06.14,3.2,3.2,0,0,0-3.29,2.93V41.27A41.48,41.48,0,0,0,12.47,50.4,40.76,40.76,0,0,0,0,80.29v.29a40.76,40.76,0,0,0,12.47,29.89,41.74,41.74,0,0,0,13.7,9.09v12.57a2.69,2.69,0,0,0,.94,2,3.71,3.71,0,0,0,2.5.94h9.54a3.24,3.24,0,0,0,3.45-3l0-24.7a27,27,0,0,1,0-53.25Z" style="fill: rgb(255, 214, 0);"/>
      <path class="cls-5" d="M72.78,88.84c-.2.52-.44,1-.68,1.53a27,27,0,0,1-20.3,16.94l0,24.82a3.24,3.24,0,0,0,3.45,3h9.54a3.69,3.69,0,0,0,2.5-.94,2.69,2.69,0,0,0,.94-2V119.56A41.74,41.74,0,0,0,82,110.47a41.47,41.47,0,0,0,9.85-15Z" style="fill: rgb(255, 214, 0);"/>
      <path class="cls-6" d="M55.86,17.45a9.17,9.17,0,1,1,12.39-3.84,9.18,9.18,0,0,1-12.39,3.84" style="fill: rgb(255, 209, 0);"/>
      <path class="cls-7" d="M39.31,17.28a9.17,9.17,0,1,0-12.38-3.84,9.17,9.17,0,0,0,12.38,3.84" style="fill: rgb(255, 209, 0);"/>
    </g>
  </g>
</svg>