<svg id="Layer_1" data-name="Layer 1" xmlns="http://www.w3.org/2000/svg" xmlns:xlink="http://www.w3.org/1999/xlink" viewBox="0 0 31.32701 21.37247"><defs><style>.cls-1{fill:url(#radial-gradient);}.cls-2{fill:url(#radial-gradient-2);}.cls-3{fill:url(#radial-gradient-3);}.cls-4{fill:url(#radial-gradient-4);}.cls-5{fill:url(#radial-gradient-5);}.cls-6{fill:url(#radial-gradient-6);}.cls-7{fill:url(#linear-gradient);}.cls-8{fill:url(#linear-gradient-2);}.cls-9{fill:url(#linear-gradient-3);}.cls-10{fill:url(#linear-gradient-4);}.cls-11{fill:url(#linear-gradient-5);}.cls-12{fill:url(#linear-gradient-6);}.cls-13{fill:url(#linear-gradient-7);}.cls-14{fill:url(#linear-gradient-8);}.cls-15{fill:url(#linear-gradient-9);}.cls-16{fill:url(#linear-gradient-10);}.cls-17{fill:url(#radial-gradient-7);}.cls-18{fill:url(#radial-gradient-8);}.cls-19{fill:url(#radial-gradient-9);}.cls-20{fill:url(#linear-gradient-11);}.cls-21{fill:url(#radial-gradient-10);}</style><radialGradient id="radial-gradient" cx="21.63749" cy="10.00248" r="11.89565" gradientUnits="userSpaceOnUse"><stop offset="0" stop-color="#ffd100"/><stop offset="0.41182" stop-color="#ffaf00"/><stop offset="0.44163" stop-color="#ffa800"/><stop offset="0.48483" stop-color="#ff9500"/><stop offset="0.5362" stop-color="#ff7500"/><stop offset="0.59385" stop-color="#ff4900"/><stop offset="0.65597" stop-color="#f10"/><stop offset="0.67384" stop-color="red"/><stop offset="0.70403" stop-color="#ff0051"/><stop offset="0.73097" stop-color="#ff0092"/><stop offset="0.75347" stop-color="#ff00c1"/><stop offset="0.77064" stop-color="#ff00de"/><stop offset="0.78047" stop-color="#ff00e9"/><stop offset="0.86617" stop-color="#9a39f2"/><stop offset="0.95859" stop-color="#3274fb"/><stop offset="1" stop-color="#088bff"/></radialGradient><radialGradient id="radial-gradient-2" cx="21.63749" cy="10.00248" r="11.89565" gradientUnits="userSpaceOnUse"><stop offset="0" stop-color="#ffd100"/><stop offset="0.41182" stop-color="#ffaf00"/><stop offset="0.48069" stop-color="#ff6800"/><stop offset="0.54242" stop-color="#ff3000"/><stop offset="0.58804" stop-color="#ff0d00"/><stop offset="0.61258" stop-color="red"/><stop offset="0.65519" stop-color="#ff0051"/><stop offset="0.69322" stop-color="#ff0092"/><stop offset="0.72497" stop-color="#ff00c1"/><stop offset="0.74921" stop-color="#ff00de"/><stop offset="0.76308" stop-color="#ff00e9"/><stop offset="0.7837" stop-color="#f505ea"/><stop offset="0.81822" stop-color="#dc14ec"/><stop offset="0.8624" stop-color="#b12cf0"/><stop offset="0.91454" stop-color="#774df5"/><stop offset="0.97269" stop-color="#2d76fc"/><stop offset="1" stop-color="#088bff"/></radialGradient><radialGradient id="radial-gradient-3" cx="23.22965" cy="10.94795" r="13.60151" gradientUnits="userSpaceOnUse"><stop offset="0" stop-color="#ffd100"/><stop offset="0.41182" stop-color="#ffaf00"/><stop offset="0.50171" stop-color="#ff6800"/><stop offset="0.58227" stop-color="#ff3000"/><stop offset="0.64181" stop-color="#ff0d00"/><stop offset="0.67384" stop-color="red"/><stop offset="0.70908" stop-color="#ff0051"/><stop offset="0.74053" stop-color="#ff0092"/><stop offset="0.76678" stop-color="#ff00c1"/><stop offset="0.78683" stop-color="#ff00de"/><stop offset="0.7983" stop-color="#ff00e9"/><stop offset="0.81583" stop-color="#f605ea"/><stop offset="0.845" stop-color="#dc14ec"/><stop offset="0.88219" stop-color="#b32bf0"/><stop offset="0.92595" stop-color="#794bf5"/><stop offset="0.97467" stop-color="#3174fb"/><stop offset="1" stop-color="#088bff"/></radialGradient><radialGradient id="radial-gradient-4" cx="20.08797" cy="11.15284" r="9.56776" gradientUnits="userSpaceOnUse"><stop offset="0" stop-color="#ffd100"/><stop offset="0.35078" stop-color="#ffaf00"/><stop offset="0.46161" stop-color="#ff6800"/><stop offset="0.56093" stop-color="#ff3000"/><stop offset="0.63435" stop-color="#ff0d00"/><stop offset="0.67384" stop-color="red"/><stop offset="0.70403" stop-color="#ff0051"/><stop offset="0.73097" stop-color="#ff0092"/><stop offset="0.75347" stop-color="#ff00c1"/><stop offset="0.77064" stop-color="#ff00de"/><stop offset="0.78047" stop-color="#ff00e9"/><stop offset="0.86617" stop-color="#9a39f2"/><stop offset="0.95859" stop-color="#3274fb"/><stop offset="1" stop-color="#088bff"/></radialGradient><radialGradient id="radial-gradient-5" cx="-65.07677" cy="12.38983" r="14.03691" gradientTransform="translate(86.99565)" gradientUnits="userSpaceOnUse"><stop offset="0" stop-color="#ffd100"/><stop offset="0.11007" stop-color="#ffcf00"/><stop offset="0.1571" stop-color="#ffc800"/><stop offset="0.19199" stop-color="#fb0"/><stop offset="0.21356" stop-color="#ffaf00"/><stop offset="0.30773" stop-color="#ffad00"/><stop offset="0.3613" stop-color="#ffa400"/><stop offset="0.4047" stop-color="#ff9600"/><stop offset="0.44267" stop-color="#ff8300"/><stop offset="0.47708" stop-color="#ff6900"/><stop offset="0.50891" stop-color="#ff4900"/><stop offset="0.53815" stop-color="#ff2500"/><stop offset="0.5625" stop-color="red"/><stop offset="0.57975" stop-color="#ff0004"/><stop offset="0.59789" stop-color="#f01"/><stop offset="0.61645" stop-color="#ff0026"/><stop offset="0.63531" stop-color="#ff0043"/><stop offset="0.65439" stop-color="#ff0069"/><stop offset="0.67366" stop-color="#ff0098"/><stop offset="0.69272" stop-color="#ff00ce"/><stop offset="0.70136" stop-color="#ff00e9"/><stop offset="0.8501" stop-color="#2c3dde"/><stop offset="0.88141" stop-color="#2257e7"/><stop offset="0.93233" stop-color="#147bf4"/><stop offset="0.97368" stop-color="#0b92fc"/><stop offset="1" stop-color="#089aff"/></radialGradient><radialGradient id="radial-gradient-6" cx="21.63749" cy="10.00248" r="11.89565" gradientUnits="userSpaceOnUse"><stop offset="0" stop-color="#ffd100"/><stop offset="0.41182" stop-color="#ffaf00"/><stop offset="0.44769" stop-color="#ffa800"/><stop offset="0.50028" stop-color="#ff9400"/><stop offset="0.56318" stop-color="#ff7400"/><stop offset="0.63404" stop-color="#ff4700"/><stop offset="0.71066" stop-color="#ff0e00"/><stop offset="0.72841" stop-color="red"/><stop offset="0.75937" stop-color="#ff0051"/><stop offset="0.787" stop-color="#ff0092"/><stop offset="0.81007" stop-color="#ff00c1"/><stop offset="0.82768" stop-color="#ff00de"/><stop offset="0.83776" stop-color="#ff00e9"/><stop offset="0.9011" stop-color="#9a39f2"/><stop offset="0.9694" stop-color="#3274fb"/><stop offset="1" stop-color="#088bff"/></radialGradient><linearGradient id="linear-gradient" x1="10.52161" y1="20.08425" x2="10.52161" y2="18.69616" gradientUnits="userSpaceOnUse"><stop offset="0" stop-color="#96a4b0"/><stop offset="0.36552" stop-color="#9ca9b5"/><stop offset="0.83544" stop-color="#acb7c4"/><stop offset="1" stop-color="#b3bdcb"/></linearGradient><linearGradient id="linear-gradient-2" x1="15.05953" y1="20.08425" x2="15.05953" y2="18.69616" xlink:href="#linear-gradient"/><linearGradient id="linear-gradient-3" x1="4.06462" y1="20.08425" x2="4.06462" y2="18.69616" xlink:href="#linear-gradient"/><linearGradient id="linear-gradient-4" x1="1.15206" y1="20.08425" x2="1.15206" y2="18.69616" xlink:href="#linear-gradient"/><linearGradient id="linear-gradient-5" x1="26.81466" y1="20.08425" x2="26.81466" y2="18.69616" xlink:href="#linear-gradient"/><linearGradient id="linear-gradient-6" x1="19.73498" y1="20.08425" x2="19.73498" y2="18.69616" xlink:href="#linear-gradient"/><linearGradient id="linear-gradient-7" x1="23.3575" y1="20.08425" x2="23.3575" y2="18.69616" xlink:href="#linear-gradient"/><linearGradient id="linear-gradient-8" x1="30.17495" y1="20.08425" x2="30.17495" y2="18.69616" xlink:href="#linear-gradient"/><linearGradient id="linear-gradient-9" x1="30.59063" y1="20.08425" x2="30.59063" y2="18.69616" xlink:href="#linear-gradient"/><linearGradient id="linear-gradient-10" x1="31.02639" y1="20.08425" x2="31.02639" y2="18.69616" xlink:href="#linear-gradient"/><radialGradient id="radial-gradient-7" cx="9.62027" cy="17.30808" r="8.53975" gradientUnits="userSpaceOnUse"><stop offset="0" stop-color="#ffd100"/><stop offset="0.10951" stop-color="#ffc600"/><stop offset="0.26478" stop-color="#ffaf00"/><stop offset="0.33522" stop-color="#ffac03"/><stop offset="0.3964" stop-color="#ffa40e"/><stop offset="0.45413" stop-color="#ff9720"/><stop offset="0.50978" stop-color="#ff8439"/><stop offset="0.56396" stop-color="#ff6c5a"/><stop offset="0.61697" stop-color="#ff4e81"/><stop offset="0.66909" stop-color="#ff2ab1"/><stop offset="0.71927" stop-color="#ff02e6"/><stop offset="0.72188" stop-color="#ff00e9"/><stop offset="0.8501" stop-color="#2c3dde"/><stop offset="0.88141" stop-color="#2257e7"/><stop offset="0.93233" stop-color="#147bf4"/><stop offset="0.97368" stop-color="#0b92fc"/><stop offset="1" stop-color="#089aff"/></radialGradient><radialGradient id="radial-gradient-8" cx="9.62027" cy="17.34469" r="8.53975" xlink:href="#radial-gradient-7"/><radialGradient id="radial-gradient-9" cx="-506.9797" cy="583.58318" r="5.16971" gradientTransform="matrix(-0.58211, 0.81311, 0.81311, 0.58211, -761.64104, 90.46665)" xlink:href="#radial-gradient-5"/><linearGradient id="linear-gradient-11" x1="6.70144" y1="23.36517" x2="6.70144" y2="18.34845" gradientUnits="userSpaceOnUse"><stop offset="0" stop-color="#08acff"/><stop offset="0.31304" stop-color="#087aff"/><stop offset="0.33279" stop-color="#1076fe"/><stop offset="0.66734" stop-color="#8f37f3"/><stop offset="0.89599" stop-color="#df10ec"/><stop offset="1" stop-color="#ff00e9"/></linearGradient><radialGradient id="radial-gradient-10" cx="-528.09577" cy="-545.19456" r="4.99222" gradientTransform="translate(-538.39893 549.55167) rotate(90)" xlink:href="#radial-gradient-3"/></defs><title>raiinmaker_logo_2</title>

<!-- <style>
.cls-1{fill:url(#radial-gradient);}
.cls-2{fill:url(#radial-gradient-2);}
.cls-3{fill:url(#radial-gradient-3);}
.cls-4{fill:url(#radial-gradient-4);}
.cls-5{fill:url(#radial-gradient-5);}
.cls-6{fill:url(#radial-gradient-6);}
.cls-7{fill:url(#linear-gradient);}
.cls-8{fill:url(#linear-gradient-2);}
.cls-9{fill:url(#linear-gradient-3);}
.cls-10{fill:url(#linear-gradient-4);}
.cls-11{fill:url(#linear-gradient-5);}
.cls-12{fill:url(#linear-gradient-6);}
.cls-13{fill:url(#linear-gradient-7);}
.cls-14{fill:url(#linear-gradient-8);}
.cls-15{fill:url(#linear-gradient-9);}
.cls-16{fill:url(#linear-gradient-10);}
.cls-17{fill:url(#radial-gradient-7);}
.cls-18{fill:url(#radial-gradient-8);}
.cls-19{fill:url(#radial-gradient-9);}
.cls-20{fill:url(#linear-gradient-11);}
.cls-21{fill:url(#radial-gradient-10);}
</style> -->

<path fill="url(#radial-gradient)" class="cls-1" d="M16.86832,6.15861l-.00065,2.15316a.75021.75021,0,0,1-.74795.74773h-.85478a.749.749,0,0,1-.74693-.74773l.00108-1.01023h-.00252L14.5219,3.893a.93723.93723,0,0,0-.28552-.70346,1.00618,1.00618,0,0,0-.70821-.27888c-.02977,0-.05932.00139-.08863.00381-.019.00129-.04165.00392-.06986.008-.30634.0438-.24319-.1843-.22227-.22234A1.74343,1.74343,0,0,1,14.71,1.9153a2.15731,2.15731,0,0,1,2.13575,1.86336h.00817c.009.10415.01441.20962.01441.31726l-.001,2.06269Z"/>
<path fill="url(#radial-gradient-2)" class="cls-2" d="M15.48048,1.68855l-.01087-.00026a.69475.69475,0,0,1-.11523-.023v.00038A2.41552,2.41552,0,0,0,14.71,1.57739c-1.36468,0-2.16611.84508-2.16611,2.37957l.00011.00021c-.00279.03157-.00459.06377-.00459.09708l.00713,3.24729h-.00379l.00144,1.01023a.74864.74864,0,0,1-.74667.74773h-.855a.75048.75048,0,0,1-.74819-.74773L10.193,6.15861h.002l-.002-2.10436a3.22635,3.22635,0,0,1,.989-2.34811A3.31791,3.31791,0,0,1,15.56324,1.415a.14719.14719,0,0,1,.05322.12318A.13676.13676,0,0,1,15.48048,1.68855Z"/>
<path fill="url(#radial-gradient-3)" class="cls-3" d="M11.37126,12.37959a1.175,1.175,0,1,1,1.17527-1.17538,1.17642,1.17642,0,0,1-1.17527,1.17538"/>
<path fill="url(#radial-gradient-4)" class="cls-4" d="M15.69174,12.37959a1.175,1.175,0,1,1,1.17506-1.17538,1.17623,1.17623,0,0,1-1.17506,1.17538"/>
<!-- <path fill="url(#radial-gradient-4" class="cls-4" d="M15.69174,12.37959a1.175,1.175,0,1,1,1.17506-1.17538,1.17623,1.17623,0,0,1-1.17506,1.17538"/> -->
<path fill="url(#radial-gradient-5)" class="cls-5" d="M19.95575,12.37959a1.175,1.175,0,1,0-1.17527-1.17538,1.17642,1.17642,0,0,0,1.17527,1.17538"/>
<path fill="url(#radial-gradient-6)" class="cls-6" d="M15.7678,1.23662l.01088-.00025a.69443.69443,0,0,0,.11522-.023v.00039a4.806,4.806,0,0,1,.637-.2341c1.34155-.31189,2.25224.71855,2.25224,2.253L18.783,3.2329c.0028.03157.0046.06377.0046.09708l-.00713,3.97156h.00379l-.00144,1.01023a.74863.74863,0,0,0,.74666.74773h.855a.75049.75049,0,0,0,.74819-.74773L21.134,6.15861h-.002L21.134,3.33A3.15829,3.15829,0,0,0,20.22276.97975,3.58957,3.58957,0,0,0,17.78965.00059a2.8,2.8,0,0,0-2.112.94153.19625.19625,0,0,0-.05322.12318A.16143.16143,0,0,0,15.7678,1.23662Z"/>
<path fill="url(#linear-gradient)" class="cls-7" d="M11.98453,21.28907a.21745.21745,0,0,1-.14749.05505h-.35625a.19032.19032,0,0,1-.2031-.17347l.00264-1.779a.85379.85379,0,0,0-.21651-.5872.793.793,0,0,0-1.08441,0,.85379.85379,0,0,0-.21651.5872l.00264,1.779a.19032.19032,0,0,1-.2031.17347H9.20619a.21749.21749,0,0,1-.1475-.05505.15983.15983,0,0,1-.05508-.11842V19.3914a1.47724,1.47724,0,0,1,.42789-1.10258,1.49457,1.49457,0,0,1,1.07279-.43289l.01732.00042.01733-.00042a1.49457,1.49457,0,0,1,1.07279.43289,1.47724,1.47724,0,0,1,.42789,1.10258v1.77925A.15981.15981,0,0,1,11.98453,21.28907Z"/>
<path fill="url(#linear-gradient-2)" class="cls-8" d="M17.15312,18.27859a1.37143,1.37143,0,0,0-1.003-.45266.26693.26693,0,0,1-.0347.00016,1.11185,1.11185,0,0,0-1.04667.61787l-.00924.02132-.00924-.02132a1.11185,1.11185,0,0,0-1.04667-.61787.2667.2667,0,0,1-.03469-.00016,1.37142,1.37142,0,0,0-1.003.45266,1.54285,1.54285,0,0,0-.41652,1.08868v1.78606a.16759.16759,0,0,0,.05028.11886.18843.18843,0,0,0,.13461.05526h.39981a.18027.18027,0,0,0,.18537-.17412l-.00241-1.78582a.90885.90885,0,0,1,.19757-.58944.639.639,0,0,1,.95624-.001.91683.91683,0,0,1,.19661.59024l.00257,1.78581a.168.168,0,0,0,.05253.12128.1892.1892,0,0,0,.13236.05309h.40912a.18918.18918,0,0,0,.13236-.05309.168.168,0,0,0,.05253-.12128l.00257-1.78581a.91683.91683,0,0,1,.19661-.59024.639.639,0,0,1,.95624.001.90886.90886,0,0,1,.19758.58944l-.00241,1.78582a.18026.18026,0,0,0,.18536.17412h.39981a.18841.18841,0,0,0,.13461-.05526.16759.16759,0,0,0,.05028-.11886V19.36727A1.54289,1.54289,0,0,0,17.15312,18.27859Z"/>
<path fill="url(#linear-gradient-3)" class="cls-9" d="M5.839,20.29259v-.77a1.72534,1.72534,0,0,0-.50531-1.26875l-.00571-.00579A1.72774,1.72774,0,0,0,4.06428,17.748a1.69977,1.69977,0,0,0-1.267.518,1.74019,1.74019,0,0,0-.50761,1.25666,1.77253,1.77253,0,0,0,1.77462,1.77468,1.74391,1.74391,0,0,0,.81362-.19072,1.82465,1.82465,0,0,0,.30839-.24864v.2905a.137.137,0,0,0,.04726.10157c.01269.01164.03262.01056.04824.018l.00042.001.01289.004a.18243.18243,0,0,0,.0649.02419h.11613l.00272.0001h.04664l.00153-.0001h.13844a.16323.16323,0,0,0,.17413-.14876v-.856ZM4.841,20.3005a1.09825,1.09825,0,0,1-1.554,0,1.10051,1.10051,0,0,1,.77725-1.87778A1.09923,1.09923,0,0,1,4.841,20.3005Z"/>
<path fill="url(#linear-gradient-4)" class="cls-10" d="M2.02107,18.66c.08318-.09877.237-.31516.237-.31516a.16256.16256,0,0,0-.01346-.23453,1.19918,1.19918,0,0,0-.80473-.29136.26544.26544,0,0,1-.03435-.00016,1.35789,1.35789,0,0,0-.99313.44822A1.52767,1.52767,0,0,0,0,19.345l.00217,1.836.00108.0018s-.00613.14218.14442.092l.00125-.00048a1.07144,1.07144,0,0,0,.60964-1.05651l-.00134-.00034.0029-.87221a.89986.89986,0,0,1,.19564-.58364.66313.66313,0,0,1,.46936-.21346.67023.67023,0,0,1,.37678.1255A.186.186,0,0,0,2.02107,18.66Z"/>
<path fill="url(#linear-gradient-5)" class="cls-11" d="M28.50422,18.87939a1.77623,1.77623,0,0,0-.39547-.54233,1.95376,1.95376,0,0,0-.58412-.3719,1.8609,1.8609,0,0,0-.71117-.13923,1.83819,1.83819,0,0,0-.7153.14217,1.91111,1.91111,0,0,0-.58381.38392,1.79313,1.79313,0,0,0-.3926.56415,1.733,1.733,0,0,0,0,1.37855,1.75584,1.75584,0,0,0,.3926.56112,1.88846,1.88846,0,0,0,.584.37795,2.00927,2.00927,0,0,0,1.43571.012,1.53085,1.53085,0,0,0,.44418-.26324l.02341-.0211c.1721-.1635.06082-.29309.0562-.29843l-.10651-.12083c-.12248-.151-.214-.11105-.49672.01074a1.46555,1.46555,0,0,1-.37174.11137,1.13076,1.13076,0,0,1-.62663-.0293,1.25439,1.25439,0,0,1-.32415-.16772,1.04453,1.04453,0,0,1-.24947-.25393.82631.82631,0,0,1-.08884-.16581l-.06059-.153h2.56027a.384.384,0,0,0,.26651-.1036.34516.34516,0,0,0,.09059-.25831,1.52318,1.52318,0,0,0-.1452-.651Zm-2.76476.431.06608-.15578a.92764.92764,0,0,1,.08978-.16319,1.14328,1.14328,0,0,1,.243-.25671,1.11364,1.11364,0,0,1,.31777-.17067,1.0869,1.0869,0,0,1,.71674-.00016,1.16255,1.16255,0,0,1,.32111.17074,1.11169,1.11169,0,0,1,.24645.257.84889.84889,0,0,1,.08884.16533l.06133.1534Z"/>
<path fill="url(#linear-gradient-6)" class="cls-12" d="M21.50932,19.55276A1.72535,1.72535,0,0,0,21.004,18.284l-.00571-.00578a1.72773,1.72773,0,0,0-1.26366-.50012,1.69977,1.69977,0,0,0-1.267.518A1.74025,1.74025,0,0,0,17.96,19.55276a1.77254,1.77254,0,0,0,1.77462,1.77469,1.744,1.744,0,0,0,.81363-.19072,1.82446,1.82446,0,0,0,.30839-.24865v.29051a.137.137,0,0,0,.04726.10156c.01268.01165.03262.01056.04824.018l.00041.001.0129.004a.1826.1826,0,0,0,.0649.02418h.11613l.00272.00011h.04663l.00154-.00011h.13843a.16322.16322,0,0,0,.17413-.14875v-.856l-.00062.00014Zm-.99794.77787a1.09548,1.09548,0,1,1,.32324-.77787A1.06173,1.06173,0,0,1,20.51138,20.33063Z"/>
<path fill="url(#linear-gradient-7)" class="cls-13" d="M24.06594,19.2309c.01091-.0101.02239-.01895.03313-.02942a1.49511,1.49511,0,0,0,.43316-1.11612v-.15892a.16163.16163,0,0,0-.05577-.11986.21986.21986,0,0,0-.14931-.05574h-.3606a.19267.19267,0,0,0-.20556.1756l.00264.15868a.86451.86451,0,0,1-.21916.59443.73875.73875,0,0,1-.54888.217.94812.94812,0,0,1-.20707-.02689V16.9519a.16186.16186,0,0,0-.05576-.11986.22018.22018,0,0,0-.14932-.05573h-.36066a.19267.19267,0,0,0-.20564.17559v4.21662a.16188.16188,0,0,0,.05577.11986.22024.22024,0,0,0,.14931.05573h.36067a.19269.19269,0,0,0,.20563-.17559V19.78977a.79562.79562,0,0,1,.3727-.09054.73869.73869,0,0,1,.54888.217.86447.86447,0,0,1,.21916.59443l-.00265.65789a.19267.19267,0,0,0,.20557.17559h.3606a.21989.21989,0,0,0,.14931-.05573.16163.16163,0,0,0,.05577-.11986v-.65813a1.49508,1.49508,0,0,0-.43317-1.11613A1.60168,1.60168,0,0,0,24.06594,19.2309Z"/>
<path fill="url(#linear-gradient-8)" class="cls-14" d="M31.26753,18.1109a1.19913,1.19913,0,0,0-.80473-.29136.26743.26743,0,0,1-.03435-.00016,1.358,1.358,0,0,0-.99314.44821,1.52773,1.52773,0,0,0-.41242,1.078l.00216,1.836.00109.00179s-.00614.14219.14441.092l.00126-.00048a1.07145,1.07145,0,0,0,.60964-1.05651l-.00134-.00034.0029-.8722a.8999.8999,0,0,1,.19563-.58366.66317.66317,0,0,1,.46937-.21344.67009.67009,0,0,1,.37678.12549.186.186,0,0,0,.21917-.01363c.08318-.09877.237-.31517.237-.31517A.16254.16254,0,0,0,31.26753,18.1109Z"/>
<polygon fill="url(#linear-gradient-9)" class="cls-15" points="30.444 20.986 30.565 20.986 30.565 21.314 30.616 21.314 30.616 20.986 30.737 20.986 30.737 20.938 30.444 20.938 30.444 20.986"/>
<polygon fill="url(#linear-gradient-10)" class="cls-16" points="31.028 21.223 31.026 21.223 30.906 20.938 30.83 20.938 30.83 21.314 30.881 21.314 30.881 21.005 30.882 21.005 31.009 21.314 31.043 21.314 31.17 21.005 31.171 21.005 31.171 21.314 31.222 21.314 31.222 20.938 31.147 20.938 31.028 21.223"/>
<path fill="url(#radial-gradient-7)" class="cls-17" d="M8.38993,18.014a.22.22,0,0,0-.14931-.05573H7.88a.19267.19267,0,0,0-.2056.1756v3.0347a.1618.1618,0,0,0,.05577.11987.22008.22008,0,0,0,.14931.05573h.36062a.19267.19267,0,0,0,.2056-.1756v-3.0347A.16179.16179,0,0,0,8.38993,18.014Z"/>
<circle fill="url(#radial-gradient-8)" class="cls-18" cx="8.06004" cy="17.10191" r="0.42505"/>
<path fill="url(#radial-gradient-9)" class="cls-19" d="M8.4119,17.35406a.43276.43276,0,1,1-.1-.60394.43327.43327,0,0,1,.1.60394"/>
<path fill="url(#linear-gradient-11)" class="cls-20" d="M7.03133,18.014a.22006.22006,0,0,0-.14931-.05573H6.52139a.19267.19267,0,0,0-.2056.1756v3.0347a.16179.16179,0,0,0,.05576.11987.22011.22011,0,0,0,.14931.05573h.36063a.19267.19267,0,0,0,.2056-.1756v-3.0347A.16179.16179,0,0,0,7.03133,18.014Z"/>
<path fill="url(#radial-gradient-10)" class="cls-21" d="M6.27016,17.10346a.43128.43128,0,1,1,.43141.43137.43178.43178,0,0,1-.43141-.43137"/></svg>