<?xml version="1.0" encoding="utf-8"?>
<svg viewBox="0 0 742.14 146.82" xmlns="http://www.w3.org/2000/svg" xmlns:xlink="http://www.w3.org/1999/xlink">
  <defs>
    <radialGradient id="radial-gradient" cx="135.73" cy="118.63" r="141.08" gradientUnits="userSpaceOnUse">
      <stop offset="0" stop-color="#ffd100"/>
      <stop offset="0.41" stop-color="#ffaf00"/>
      <stop offset="0.44" stop-color="#ffa800"/>
      <stop offset="0.48" stop-color="#ff9500"/>
      <stop offset="0.54" stop-color="#ff7500"/>
      <stop offset="0.59" stop-color="#ff4900"/>
      <stop offset="0.66" stop-color="#f10"/>
      <stop offset="0.67" stop-color="red"/>
      <stop offset="0.7" stop-color="#ff0051"/>
      <stop offset="0.73" stop-color="#ff0092"/>
      <stop offset="0.75" stop-color="#ff00c1"/>
      <stop offset="0.77" stop-color="#ff00de"/>
      <stop offset="0.78" stop-color="#ff00e9"/>
      <stop offset="0.87" stop-color="#9a39f2"/>
      <stop offset="0.96" stop-color="#3274fb"/>
      <stop offset="1" stop-color="#088bff"/>
    </radialGradient>
    <radialGradient id="radial-gradient-2" cx="135.73" cy="118.63" r="141.08" gradientUnits="userSpaceOnUse">
      <stop offset="0" stop-color="#ffd100"/>
      <stop offset="0.41" stop-color="#ffaf00"/>
      <stop offset="0.48" stop-color="#ff6800"/>
      <stop offset="0.54" stop-color="#ff3000"/>
      <stop offset="0.59" stop-color="#ff0d00"/>
      <stop offset="0.61" stop-color="red"/>
      <stop offset="0.66" stop-color="#ff0051"/>
      <stop offset="0.69" stop-color="#ff0092"/>
      <stop offset="0.72" stop-color="#ff00c1"/>
      <stop offset="0.75" stop-color="#ff00de"/>
      <stop offset="0.76" stop-color="#ff00e9"/>
      <stop offset="0.78" stop-color="#f505ea"/>
      <stop offset="0.82" stop-color="#dc14ec"/>
      <stop offset="0.86" stop-color="#b12cf0"/>
      <stop offset="0.91" stop-color="#774df5"/>
      <stop offset="0.97" stop-color="#2d76fc"/>
      <stop offset="1" stop-color="#088bff"/>
    </radialGradient>
    <radialGradient id="radial-gradient-3" cx="154.61" cy="129.84" r="161.31" gradientUnits="userSpaceOnUse">
      <stop offset="0" stop-color="#ffd100"/>
      <stop offset="0.41" stop-color="#ffaf00"/>
      <stop offset="0.5" stop-color="#ff6800"/>
      <stop offset="0.58" stop-color="#ff3000"/>
      <stop offset="0.64" stop-color="#ff0d00"/>
      <stop offset="0.67" stop-color="red"/>
      <stop offset="0.71" stop-color="#ff0051"/>
      <stop offset="0.74" stop-color="#ff0092"/>
      <stop offset="0.77" stop-color="#ff00c1"/>
      <stop offset="0.79" stop-color="#ff00de"/>
      <stop offset="0.8" stop-color="#ff00e9"/>
      <stop offset="0.82" stop-color="#f605ea"/>
      <stop offset="0.84" stop-color="#dc14ec"/>
      <stop offset="0.88" stop-color="#b32bf0"/>
      <stop offset="0.93" stop-color="#794bf5"/>
      <stop offset="0.97" stop-color="#3174fb"/>
      <stop offset="1" stop-color="#088bff"/>
    </radialGradient>
    <radialGradient id="radial-gradient-4" cx="117.35" cy="132.27" r="113.47" gradientUnits="userSpaceOnUse">
      <stop offset="0" stop-color="#ffd100"/>
      <stop offset="0.35" stop-color="#ffaf00"/>
      <stop offset="0.46" stop-color="#ff6800"/>
      <stop offset="0.56" stop-color="#ff3000"/>
      <stop offset="0.63" stop-color="#ff0d00"/>
      <stop offset="0.67" stop-color="red"/>
      <stop offset="0.7" stop-color="#ff0051"/>
      <stop offset="0.73" stop-color="#ff0092"/>
      <stop offset="0.75" stop-color="#ff00c1"/>
      <stop offset="0.77" stop-color="#ff00de"/>
      <stop offset="0.78" stop-color="#ff00e9"/>
      <stop offset="0.87" stop-color="#9a39f2"/>
      <stop offset="0.96" stop-color="#3274fb"/>
      <stop offset="1" stop-color="#088bff"/>
    </radialGradient>
    <radialGradient id="radial-gradient-5" cx="52.07" cy="146.94" r="166.47" gradientTransform="translate(87)" gradientUnits="userSpaceOnUse">
      <stop offset="0" stop-color="#ffd100"/>
      <stop offset="0.11" stop-color="#ffcf00"/>
      <stop offset="0.16" stop-color="#ffc800"/>
      <stop offset="0.19" stop-color="#fb0"/>
      <stop offset="0.21" stop-color="#ffaf00"/>
      <stop offset="0.31" stop-color="#ffad00"/>
      <stop offset="0.36" stop-color="#ffa400"/>
      <stop offset="0.4" stop-color="#ff9600"/>
      <stop offset="0.44" stop-color="#ff8300"/>
      <stop offset="0.48" stop-color="#ff6900"/>
      <stop offset="0.51" stop-color="#ff4900"/>
      <stop offset="0.54" stop-color="#ff2500"/>
      <stop offset="0.56" stop-color="red"/>
      <stop offset="0.58" stop-color="#ff0004"/>
      <stop offset="0.6" stop-color="#f01"/>
      <stop offset="0.62" stop-color="#ff0026"/>
      <stop offset="0.64" stop-color="#ff0043"/>
      <stop offset="0.65" stop-color="#ff0069"/>
      <stop offset="0.67" stop-color="#ff0098"/>
      <stop offset="0.69" stop-color="#ff00ce"/>
      <stop offset="0.7" stop-color="#ff00e9"/>
      <stop offset="0.85" stop-color="#2c3dde"/>
      <stop offset="0.88" stop-color="#2257e7"/>
      <stop offset="0.93" stop-color="#147bf4"/>
      <stop offset="0.97" stop-color="#0b92fc"/>
      <stop offset="1" stop-color="#089aff"/>
    </radialGradient>
    <radialGradient id="radial-gradient-6" cx="135.73" cy="118.63" r="141.08" gradientUnits="userSpaceOnUse">
      <stop offset="0" stop-color="#ffd100"/>
      <stop offset="0.41" stop-color="#ffaf00"/>
      <stop offset="0.45" stop-color="#ffa800"/>
      <stop offset="0.5" stop-color="#ff9400"/>
      <stop offset="0.56" stop-color="#ff7400"/>
      <stop offset="0.63" stop-color="#ff4700"/>
      <stop offset="0.71" stop-color="#ff0e00"/>
      <stop offset="0.73" stop-color="red"/>
      <stop offset="0.76" stop-color="#ff0051"/>
      <stop offset="0.79" stop-color="#ff0092"/>
      <stop offset="0.81" stop-color="#ff00c1"/>
      <stop offset="0.83" stop-color="#ff00de"/>
      <stop offset="0.84" stop-color="#ff00e9"/>
      <stop offset="0.9" stop-color="#9a39f2"/>
      <stop offset="0.97" stop-color="#3274fb"/>
      <stop offset="1" stop-color="#088bff"/>
    </radialGradient>
    <linearGradient id="linear-gradient" x1="355.51" y1="95.55" x2="355.51" y2="69.76" gradientUnits="userSpaceOnUse">
      <stop offset="0" stop-color="#96a4b0"/>
      <stop offset="0.37" stop-color="#9ca9b5"/>
      <stop offset="0.84" stop-color="#acb7c4"/>
      <stop offset="1" stop-color="#b3bdcb"/>
    </linearGradient>
    <linearGradient id="linear-gradient-2" x1="439.84" y1="95.55" x2="439.84" y2="69.76" xlink:href="#linear-gradient"/>
    <linearGradient id="linear-gradient-3" x1="235.52" y1="95.55" x2="235.52" y2="69.76" xlink:href="#linear-gradient"/>
    <linearGradient id="linear-gradient-4" x1="181.39" y1="95.55" x2="181.39" y2="69.76" xlink:href="#linear-gradient"/>
    <linearGradient id="linear-gradient-5" x1="658.28" y1="95.55" x2="658.28" y2="69.76" xlink:href="#linear-gradient"/>
    <linearGradient id="linear-gradient-6" x1="526.72" y1="95.55" x2="526.72" y2="69.76" xlink:href="#linear-gradient"/>
    <linearGradient id="linear-gradient-7" x1="594.04" y1="95.55" x2="594.04" y2="69.76" xlink:href="#linear-gradient"/>
    <linearGradient id="linear-gradient-8" x1="720.73" y1="95.55" x2="720.73" y2="69.76" xlink:href="#linear-gradient"/>
    <linearGradient id="linear-gradient-9" x1="728.45" y1="95.55" x2="728.45" y2="69.76" xlink:href="#linear-gradient"/>
    <linearGradient id="linear-gradient-10" x1="736.55" y1="95.55" x2="736.55" y2="69.76" xlink:href="#linear-gradient"/>
    <radialGradient id="radial-gradient-7" cx="338.76" cy="43.96" r="158.69" gradientUnits="userSpaceOnUse">
      <stop offset="0" stop-color="#ffd100"/>
      <stop offset="0.11" stop-color="#ffc600"/>
      <stop offset="0.26" stop-color="#ffaf00"/>
      <stop offset="0.34" stop-color="#ffac03"/>
      <stop offset="0.4" stop-color="#ffa40e"/>
      <stop offset="0.45" stop-color="#ff9720"/>
      <stop offset="0.51" stop-color="#ff8439"/>
      <stop offset="0.56" stop-color="#ff6c5a"/>
      <stop offset="0.62" stop-color="#ff4e81"/>
      <stop offset="0.67" stop-color="#ff2ab1"/>
      <stop offset="0.72" stop-color="#ff02e6"/>
      <stop offset="0.72" stop-color="#ff00e9"/>
      <stop offset="0.85" stop-color="#2c3dde"/>
      <stop offset="0.88" stop-color="#2257e7"/>
      <stop offset="0.93" stop-color="#147bf4"/>
      <stop offset="0.97" stop-color="#0b92fc"/>
      <stop offset="1" stop-color="#089aff"/>
    </radialGradient>
    <radialGradient id="radial-gradient-8" cx="338.76" cy="44.64" r="158.69" xlink:href="#radial-gradient-7"/>
    <radialGradient id="radial-gradient-9" cx="-321.22" cy="-130.72" r="96.07" gradientTransform="matrix(-0.81, -0.58, -0.58, 0.81, -43.16, -41.79)" xlink:href="#radial-gradient-5"/>
    <linearGradient id="linear-gradient-11" x1="284.52" y1="156.52" x2="284.52" y2="63.29" gradientUnits="userSpaceOnUse">
      <stop offset="0" stop-color="#08acff"/>
      <stop offset="0.31" stop-color="#087aff"/>
      <stop offset="0.33" stop-color="#1076fe"/>
      <stop offset="0.67" stop-color="#8f37f3"/>
      <stop offset="0.9" stop-color="#df10ec"/>
      <stop offset="1" stop-color="#ff00e9"/>
    </linearGradient>
    <radialGradient id="radial-gradient-10" cx="365.4" cy="38.41" r="92.77" xlink:href="#radial-gradient-3"/>
    <style>.cls-1{fill:url(#radial-gradient);}.cls-2{fill:url(#radial-gradient-2);}.cls-3{fill:url(#radial-gradient-3);}.cls-4{fill:url(#radial-gradient-4);}.cls-5{fill:url(#radial-gradient-5);}.cls-6{fill:url(#radial-gradient-6);}.cls-7{fill:url(#linear-gradient);}.cls-8{fill:url(#linear-gradient-2);}.cls-9{fill:url(#linear-gradient-3);}.cls-10{fill:url(#linear-gradient-4);}.cls-11{fill:url(#linear-gradient-5);}.cls-12{fill:url(#linear-gradient-6);}.cls-13{fill:url(#linear-gradient-7);}.cls-14{fill:url(#linear-gradient-8);}.cls-15{fill:url(#linear-gradient-9);}.cls-16{fill:url(#linear-gradient-10);}.cls-17{fill:url(#radial-gradient-7);}.cls-18{fill:url(#radial-gradient-8);}.cls-19{fill:url(#radial-gradient-9);}.cls-20{fill:url(#linear-gradient-11);}.cls-21{fill:url(#radial-gradient-10);}</style>
  </defs>
  <g id="Layer_2" data-name="Layer 2">
    <g id="_11_LOGO_SET_2_copy" data-name="11 LOGO SET 2 copy">
      <path class="cls-1" fill="url(#radial-gradient)" d="M79.17,73V98.57a8.89,8.89,0,0,1-8.87,8.87H60.15a8.89,8.89,0,0,1-8.86-8.87l0-12h0l.06-40.42A11.1,11.1,0,0,0,48,37.83a11.93,11.93,0,0,0-8.4-3.31c-.35,0-.7,0-1,0s-.49,0-.83.09C34,35.18,34.79,32.47,35,32c3.72-6.1,10.42-9.31,18.53-9.31A25.59,25.59,0,0,1,78.9,44.81H79c.1,1.24.17,2.49.17,3.77V73Z"/>
      <path class="cls-2" fill="url(#radial-gradient-2)" d="M62.71,20h-.13a7.86,7.86,0,0,1-1.37-.27h0a28.87,28.87,0,0,0-7.64-1c-16.18,0-25.69,10-25.69,28.22h0c0,.38-.05.76-.05,1.15l.08,38.51h0v12A8.87,8.87,0,0,1,19,107.44H8.89A8.89,8.89,0,0,1,0,98.57L0,73H0l0-25A38.3,38.3,0,0,1,11.73,20.23a39.37,39.37,0,0,1,52-3.45,1.75,1.75,0,0,1,.63,1.46A1.63,1.63,0,0,1,62.71,20Z"/>
      <path class="cls-3" fill="url(#radial-gradient)" d="M14,146.82a13.94,13.94,0,1,1,13.94-13.94A13.95,13.95,0,0,1,14,146.82"/>
      <path class="cls-4" fill="url(#radial-gradient-4)" d="M65.21,146.82a13.94,13.94,0,1,1,13.94-13.94,13.95,13.95,0,0,1-13.94,13.94"/>
      <path class="cls-5" fill="url(#radial-gradient-5)" d="M115.78,146.82a13.94,13.94,0,1,0-13.94-13.94,14,14,0,0,0,13.94,13.94"/>
      <path class="cls-6" fill="url(#radial-gradient-6)" d="M66.11,14.67h.13a7.86,7.86,0,0,0,1.37-.27h0c2.31-.74,3.8-1.9,7.55-2.77,15.92-3.7,26.72,8.52,26.72,26.72h0a10.93,10.93,0,0,1,.06,1.15l-.09,47.1h0l0,12a8.89,8.89,0,0,0,8.86,8.87h10.14a8.9,8.9,0,0,0,8.87-8.87l0-25.53h0l0-33.55c0-10.68-3-20.07-10.81-27.87C111.43,4.12,100.58.25,90.09,0c-10-.23-20.48,5.2-25,11.16a2.32,2.32,0,0,0-.64,1.46A1.92,1.92,0,0,0,66.11,14.67Z"/>
      <path class="cls-7" fill="url(#linear-gradient)" d="M382.69,117.94a4,4,0,0,1-2.74,1h-6.62a3.53,3.53,0,0,1-3.77-3.22l.05-33.06c0-3.82-1.32-8.26-4-10.91-2.52-2.47-5.36-3.87-10.07-4-4.72.12-7.55,1.52-10.08,4-2.71,2.65-4,7.09-4,10.91l0,33.06a3.54,3.54,0,0,1-3.78,3.22h-6.62a4,4,0,0,1-2.74-1,3,3,0,0,1-1-2.2V82.68c0-7.9,2.32-15,7.95-20.49a27.73,27.73,0,0,1,19.94-8h.64a27.77,27.77,0,0,1,19.94,8c5.62,5.48,8,12.59,8,20.49v33.06A3,3,0,0,1,382.69,117.94Z"/>
      <path class="cls-8" fill="url(#linear-gradient-2)" d="M478.74,62a25.5,25.5,0,0,0-18.64-8.42,5.08,5.08,0,0,1-.64,0c-6.33,0-15.32,2.45-19.45,11.48l-.17.4-.18-.4c-4.12-9-13.12-11.48-19.45-11.48a5.16,5.16,0,0,1-.64,0A25.5,25.5,0,0,0,400.93,62a28.64,28.64,0,0,0-7.74,20.23v33.19a3.14,3.14,0,0,0,.93,2.21,3.51,3.51,0,0,0,2.51,1h7.43a3.35,3.35,0,0,0,3.44-3.23l0-33.19c0-3.83,1.2-8.29,3.67-11a11.87,11.87,0,0,1,17.77,0c2.46,2.7,3.65,7.15,3.65,11l.05,33.18a3.12,3.12,0,0,0,1,2.26,3.56,3.56,0,0,0,2.46,1h7.61a3.54,3.54,0,0,0,2.46-1,3.12,3.12,0,0,0,1-2.26l.05-33.18c0-3.82,1.19-8.27,3.65-11a11.87,11.87,0,0,1,17.77,0c2.48,2.66,3.68,7.12,3.68,11l-.05,33.19a3.35,3.35,0,0,0,3.45,3.23h7.43a3.51,3.51,0,0,0,2.5-1,3.14,3.14,0,0,0,.93-2.21V82.23A28.64,28.64,0,0,0,478.74,62Z"/>
      <path class="cls-9" fill="url(#linear-gradient-3)" d="M268.49,99.42V85.11c0-9.43-3.16-17.35-9.39-23.57l-.11-.11c-6.21-6.17-14.11-9.29-23.48-9.29S218.18,55.37,212,61.76a32.33,32.33,0,0,0-9.44,23.35,32.93,32.93,0,0,0,33,33,32.49,32.49,0,0,0,15.12-3.54,34.08,34.08,0,0,0,5.73-4.62v5.4a2.52,2.52,0,0,0,.88,1.88c.24.22.61.2.9.34v0a2.17,2.17,0,0,0,.24.07,3.35,3.35,0,0,0,1.21.45h5.68a3,3,0,0,0,3.23-2.76V99.42Zm-18.55.15a20.44,20.44,0,0,1-34.87-14.46,20.44,20.44,0,1,1,34.87,14.46Z"/>
      <path class="cls-10" fill="url(#linear-gradient-4)" d="M197.54,69.08c1.55-1.83,4.41-5.85,4.41-5.85s2.08-2.42-.25-4.36c-4.48-4.12-10.41-5.42-15-5.42a4.17,4.17,0,0,1-.64,0,25.22,25.22,0,0,0-18.45,8.33,28.39,28.39,0,0,0-7.67,20l0,34.12,0,0s-.11,2.65,2.69,1.71h0c6.25-2.59,11.33-9.24,11.33-19.64h0l.05-16.21c0-3.8,1.19-8.21,3.63-10.85a11.64,11.64,0,0,1,15.73-1.63C194.83,70.15,196.77,70,197.54,69.08Z"/>
      <path class="cls-11" fill="url(#linear-gradient-5)" d="M689.68,73.16a33.07,33.07,0,0,0-7.35-10.08,36.56,36.56,0,0,0-10.85-6.91,34.72,34.72,0,0,0-13.22-2.59A34.12,34.12,0,0,0,645,56.23a35.43,35.43,0,0,0-10.85,7.13,33.33,33.33,0,0,0-7.3,10.48,32.29,32.29,0,0,0,0,25.62,32.67,32.67,0,0,0,7.3,10.43,34.9,34.9,0,0,0,10.85,7,37.31,37.31,0,0,0,26.68.23,28.48,28.48,0,0,0,8.25-4.9l.44-.39c3.2-3,1.13-5.44,1-5.54l-2-2.25c-2.27-2.8-4-2.06-9.23.2a27.35,27.35,0,0,1-6.9,2.07,21.09,21.09,0,0,1-11.65-.54,23.56,23.56,0,0,1-6-3.12A19.42,19.42,0,0,1,641,98a15.53,15.53,0,0,1-1.65-3.08L638.18,92h47.58a7.11,7.11,0,0,0,5-1.93,6.41,6.41,0,0,0,1.69-4.8,28.31,28.31,0,0,0-2.7-12.1Zm-51.38,8,1.23-2.9a17.59,17.59,0,0,1,1.67-3,21.26,21.26,0,0,1,4.51-4.77,20.62,20.62,0,0,1,5.91-3.17,20.15,20.15,0,0,1,13.32,0,21.58,21.58,0,0,1,6,3.17,20.56,20.56,0,0,1,4.58,4.78,15.79,15.79,0,0,1,1.66,3.07l1.13,2.85Z"/>
      <path class="cls-12" fill="url(#linear-gradient-6)" d="M559.69,85.67c0-9.43-3.16-17.35-9.39-23.57l-.1-.11c-6.21-6.17-14.12-9.29-23.49-9.29s-17.33,3.23-23.54,9.62a32.32,32.32,0,0,0-9.43,23.35,32.91,32.91,0,0,0,33,33,32.46,32.46,0,0,0,15.12-3.54,34.08,34.08,0,0,0,5.73-4.62v5.4a2.52,2.52,0,0,0,.88,1.88c.24.22.61.2.9.34v0a2.17,2.17,0,0,0,.24.07,3.24,3.24,0,0,0,1.2.45h5.68a3,3,0,0,0,3.23-2.76V100h0Zm-18.54,14.46a20.44,20.44,0,0,1-34.88-14.46,20.44,20.44,0,1,1,34.88,14.46Z"/>
      <path class="cls-13" fill="url(#linear-gradient-7)" d="M607.2,79.69c.21-.18.42-.35.62-.54,5.7-5.55,8-12.75,8-20.74v-3a3,3,0,0,0-1-2.23,4.12,4.12,0,0,0-2.77-1h-6.7a3.57,3.57,0,0,0-3.82,3.26l0,2.95c0,3.87-1.33,8.36-4.07,11.05-2.56,2.49-5.43,3.92-10.2,4a18.08,18.08,0,0,1-3.85-.5V37.34a3,3,0,0,0-1-2.23,4.13,4.13,0,0,0-2.78-1H573a3.57,3.57,0,0,0-3.82,3.26V115.7a3,3,0,0,0,1,2.23,4.06,4.06,0,0,0,2.77,1h6.7a3.57,3.57,0,0,0,3.82-3.26V90.08a14.84,14.84,0,0,1,6.93-1.68c4.77.11,7.64,1.53,10.2,4,2.74,2.69,4.07,7.18,4.07,11l0,12.23a3.58,3.58,0,0,0,3.82,3.26h6.7a4.08,4.08,0,0,0,2.78-1,3,3,0,0,0,1-2.23V103.47c0-8-2.35-15.19-8.05-20.74A30.75,30.75,0,0,0,607.2,79.69Z"/>
      <path class="cls-14" fill="url(#linear-gradient-8)" d="M741,58.88c-4.48-4.12-10.41-5.41-14.95-5.41a5.08,5.08,0,0,1-.64,0A25.26,25.26,0,0,0,707,61.79a28.38,28.38,0,0,0-7.66,20l0,34.12,0,0s-.12,2.64,2.68,1.71h0c6.25-2.59,11.33-9.24,11.33-19.64h0l.05-16.21c0-3.8,1.19-8.21,3.64-10.85a11.62,11.62,0,0,1,15.72-1.63c1.36.81,3.3.66,4.08-.26,1.54-1.83,4.4-5.85,4.4-5.85S743.36,60.82,741,58.88Z"/>
      <polygon class="cls-15" fill="url(#linear-gradient-9)" points="725.73 112.31 727.98 112.31 727.98 118.41 728.92 118.41 728.92 112.31 731.18 112.31 731.18 111.42 725.73 111.42 725.73 112.31"/>
      <polygon class="cls-16" fill="url(#linear-gradient-10)" points="736.58 116.71 736.54 116.71 734.32 111.42 732.9 111.42 732.9 118.41 733.85 118.41 733.85 112.66 733.87 112.66 736.23 118.41 736.87 118.41 739.23 112.66 739.25 112.66 739.25 118.41 740.19 118.41 740.19 111.42 738.78 111.42 736.58 116.71"/>
      <path class="cls-17" fill="url(#radial-gradient-7)" d="M315.89,57.08a4.06,4.06,0,0,0-2.77-1h-6.7a3.58,3.58,0,0,0-3.82,3.27V115.7a3,3,0,0,0,1,2.23,4.1,4.1,0,0,0,2.78,1h6.7a3.57,3.57,0,0,0,3.82-3.26V59.31A3,3,0,0,0,315.89,57.08Z"/>
      <circle class="cls-18" cx="309.76" cy="40.13" r="7.9"/>
      <path class="cls-19" fill="url(#radial-gradient-8)" d="M305.08,46.67a8,8,0,1,1,11.23-1.86,8,8,0,0,1-11.23,1.86"/>
      <path class="cls-20" fill="url(#radial-gradient-9)" d="M290.65,57.08a4.09,4.09,0,0,0-2.78-1h-6.7a3.59,3.59,0,0,0-3.82,3.27V115.7a3,3,0,0,0,1,2.23,4.06,4.06,0,0,0,2.77,1h6.7a3.57,3.57,0,0,0,3.82-3.26V59.31A3,3,0,0,0,290.65,57.08Z"/>
      <path class="cls-21" fill="url(#radial-gradient-10)" d="M284.52,48.17a8,8,0,1,1,8-8,8,8,0,0,1-8,8"/>
    </g>
  </g>
</svg>