<svg width="30" height="30" viewBox="0 0 46 48" fill="none" xmlns="http://www.w3.org/2000/svg">
<path d="M31.6251 7.49997C31.6249 5.74026 32.2177 4.03651 33.2997 2.6868C34.3818 1.33708 35.8842 0.427356 37.5441 0.116777C39.204 -0.193802 40.9157 0.114546 42.3797 0.987873C43.8438 1.8612 44.9669 3.24389 45.5527 4.89404C46.1384 6.54419 46.1494 8.35671 45.5838 10.0145C45.0182 11.6723 43.912 13.0697 42.4587 13.9624C41.0054 14.8551 39.2976 15.1861 37.6341 14.8975C35.9705 14.609 34.4572 13.7192 33.3588 12.384L14.0445 21.744C14.4885 23.2123 14.4885 24.7876 14.0445 26.256L33.3588 35.616C34.5198 34.207 36.1408 33.2979 37.9076 33.0649C39.6744 32.832 41.4611 33.2917 42.9215 34.355C44.382 35.4184 45.4121 37.0096 45.8123 38.8203C46.2125 40.6311 45.9542 42.5323 45.0876 44.1557C44.2209 45.779 42.8076 47.0089 41.1215 47.6068C39.4354 48.2048 37.5966 48.1283 35.9614 47.3922C34.3263 46.6561 33.0113 45.3128 32.2712 43.6226C31.5311 41.9324 31.4187 40.0157 31.9558 38.244L12.6415 28.884C11.6854 30.0467 10.411 30.8759 8.98964 31.2602C7.56832 31.6445 6.06831 31.5653 4.6914 31.0334C3.31448 30.5015 2.12672 29.5423 1.28789 28.2848C0.449051 27.0274 -0.000610352 25.5321 -0.000610352 24C-0.000610352 22.4679 0.449051 20.9725 1.28789 19.7151C2.12672 18.4577 3.31448 17.4985 4.6914 16.9665C6.06831 16.4346 7.56832 16.3554 8.98964 16.7397C10.411 17.124 11.6854 17.9533 12.6415 19.116L31.9558 9.75597C31.7359 9.02597 31.6244 8.26516 31.6251 7.49997Z" fill="black"/>
</svg>
