<svg width="35" height="35" viewBox="0 0 59 41" fill="none" xmlns="http://www.w3.org/2000/svg">
<path d="M58.6436 19.0042C53.0887 8.16601 42.0918 0.833008 29.5 0.833008C16.9082 0.833008 5.9082 8.17113 0.356463 19.0052C0.122145 19.4687 6.10352e-05 19.9808 6.10352e-05 20.5002C6.10352e-05 21.0196 0.122145 21.5317 0.356463 21.9952C5.91127 32.8333 16.9082 40.1663 29.5 40.1663C42.0918 40.1663 53.0918 32.8282 58.6436 21.9941C58.8779 21.5306 59 21.0185 59 20.4992C59 19.9798 58.8779 19.4677 58.6436 19.0042ZM29.5 35.2497C26.5827 35.2497 23.731 34.3846 21.3053 32.7639C18.8797 31.1431 16.9892 28.8395 15.8728 26.1443C14.7564 23.449 14.4643 20.4833 15.0334 17.6221C15.6026 14.7609 17.0074 12.1327 19.0702 10.0698C21.133 8.00702 23.7612 6.60222 26.6224 6.03309C29.4836 5.46396 32.4494 5.75606 35.1446 6.87245C37.8398 7.98884 40.1434 9.87939 41.7642 12.305C43.3849 14.7306 44.25 17.5824 44.25 20.4997C44.2509 22.4369 43.8701 24.3554 43.1292 26.1454C42.3882 27.9353 41.3018 29.5617 39.9319 30.9316C38.5621 32.3015 36.9357 33.3879 35.1457 34.1288C33.3557 34.8697 31.4373 35.2506 29.5 35.2497ZM29.5 10.6663C28.6223 10.6786 27.7503 10.8092 26.9075 11.0546C27.6022 11.9986 27.9356 13.1604 27.8471 14.3292C27.7587 15.498 27.2544 16.5964 26.4256 17.4252C25.5967 18.254 24.4983 18.7584 23.3295 18.8468C22.1607 18.9352 20.999 18.6019 20.0549 17.9072C19.5173 19.8877 19.6143 21.987 20.3323 23.9096C21.0504 25.8321 22.3532 27.4811 24.0575 28.6244C25.7617 29.7677 27.7816 30.3478 29.8329 30.283C31.8841 30.2182 33.8634 29.5118 35.4921 28.2632C37.1208 27.0146 38.3169 25.2867 38.9122 23.3226C39.5074 21.3586 39.4718 19.2574 38.8102 17.3147C38.1487 15.372 36.8946 13.6856 35.2245 12.493C33.5543 11.3004 31.5522 10.6615 29.5 10.6663Z" fill="black"/>
</svg>
